<svg id="Layer_1" data-name="Layer 1" xmlns="http://www.w3.org/2000/svg" viewBox="0 0 500 500"><defs><style>.cls-1{fill:#fff;}.cls-2{fill:#f0aa1d;}</style></defs><path class="cls-1" d="M164.37,242.69h-4.62v10.58h-5.52V225.72h10.14c6.63,0,9.95,3.75,9.95,8.53C174.32,238.43,171.47,242.69,164.37,242.69Zm-.24-4.46c3.12,0,4.5-1.54,4.5-4s-1.38-4-4.5-4h-4.38v8Z"/><path class="cls-1" d="M187,225.72c6.63,0,9.94,3.83,9.94,8.45a8,8,0,0,1-6.27,7.93l6.59,11.17h-6.4l-6.07-10.73h-2.61v10.73h-5.53V225.72Zm-.2,4.58h-4.62v8.09h4.62c3.08,0,4.46-1.62,4.46-4.1S189.87,230.3,186.79,230.3Z"/><path class="cls-1" d="M213.15,253.55a14.11,14.11,0,1,1,14.1-14.13A13.85,13.85,0,0,1,213.15,253.55Zm0-4.93c5,0,8.41-3.6,8.41-9.2s-3.43-9.12-8.41-9.12-8.44,3.51-8.44,9.12S208.14,248.62,213.15,248.62Z"/><path class="cls-1" d="M229.77,225.72h17v4.46H235.3v7.07h8.8v4.38h-8.8v11.64h-5.53Z"/><path class="cls-1" d="M265.1,230.18H254.64v6.91h9.27v4.38h-9.27v7.3H265.1v4.5h-16V225.68h16Z"/><path class="cls-1" d="M278,253.55c-5.72,0-10.14-3-10.22-8.21h5.92c.16,2.21,1.62,3.67,4.19,3.67s4.14-1.38,4.14-3.36c0-6-14.21-2.36-14.17-12.35,0-5,4-8,9.71-8s9.51,2.88,9.87,7.85H281.4c-.12-1.81-1.58-3.24-3.95-3.27-2.17-.08-3.79,1-3.79,3.23,0,5.53,14.13,2.45,14.13,12.16C287.79,249.64,284.32,253.55,278,253.55Z"/><path class="cls-1" d="M300.5,253.55c-5.72,0-10.14-3-10.22-8.21h5.92c.16,2.21,1.62,3.67,4.18,3.67s4.15-1.38,4.15-3.36c0-6-14.21-2.36-14.17-12.35,0-5,4-8,9.71-8s9.51,2.88,9.87,7.85h-6.08c-.12-1.81-1.58-3.24-3.95-3.27-2.17-.08-3.79,1-3.79,3.23,0,5.53,14.13,2.45,14.13,12.16C310.25,249.64,306.78,253.55,300.5,253.55Z"/><path class="cls-1" d="M313.45,225.72H319v27.55h-5.52Z"/><path class="cls-1" d="M335.63,253.55a14.11,14.11,0,1,1,14.09-14.13A13.85,13.85,0,0,1,335.63,253.55Zm0-4.93c5,0,8.41-3.6,8.41-9.2s-3.44-9.12-8.41-9.12-8.45,3.51-8.45,9.12S330.62,248.62,335.63,248.62Z"/><path class="cls-1" d="M375.81,225.68v27.59h-5.52l-12.52-18.9v18.9h-5.52V225.68h5.52l12.52,18.95V225.68Z"/><path class="cls-1" d="M396.57,248h-11l-1.82,5.25H378l9.91-27.59h6.43l9.91,27.59h-5.84Zm-5.48-15.94-4,11.52h8Z"/><path class="cls-1" d="M411.89,225.72v23.17H421v4.38H406.36V225.72Z"/><path class="cls-1" d="M164,267.83c0,3.66-2.31,5.87-6.24,5.87h-3.49V261.91h3.49C161.65,261.91,164,264.14,164,267.83Zm-6.24,4.89c3.34,0,5-1.85,5-4.89s-1.7-4.94-5-4.94h-2.31v9.83Z"/><path class="cls-1" d="M175.33,262.87h-5v4.41h4.47v1h-4.47v4.47h5v1h-6.16V261.89h6.16Z"/><path class="cls-1" d="M184.26,273.82c-2.36,0-3.91-1.35-4-3.15h1.25a2.45,2.45,0,0,0,2.73,2.15c1.64,0,2.6-1,2.6-2.17,0-3.48-6.48-1.28-6.48-5.72,0-1.82,1.51-3.15,3.78-3.15s3.6,1.24,3.8,2.86h-1.28a2.42,2.42,0,0,0-2.57-1.85,2.22,2.22,0,0,0-2.53,2.11c0,3.4,6.48,1.31,6.48,5.7C188.06,272.2,186.76,273.82,184.26,273.82Z"/><path class="cls-1" d="M193.37,261.91h1.18V273.7h-1.18Z"/><path class="cls-1" d="M210.93,265.35h-1.38a4.14,4.14,0,0,0-4-2.49c-2.62,0-4.63,1.89-4.63,4.94s2,5,4.63,5a4.35,4.35,0,0,0,4.48-4.35h-5v-1h6.21v.86a5.66,5.66,0,0,1-5.73,5.52,6,6,0,0,1,0-12A5.46,5.46,0,0,1,210.93,265.35Z"/><path class="cls-1" d="M225.38,261.91V273.7H224.2l-6.52-9.92v9.92H216.5V261.91h1.18l6.52,9.9v-9.9Z"/><path class="cls-1" d="M245.59,270.9h-5.36l-1,2.8H238l4.3-11.64h1.33l4.29,11.64h-1.25Zm-2.68-7.35-2.33,6.37h4.66Z"/><path class="cls-1" d="M263.45,265.35h-1.38a4.14,4.14,0,0,0-4-2.49c-2.62,0-4.62,1.89-4.62,4.94s2,5,4.62,5a4.35,4.35,0,0,0,4.48-4.35h-4.95v-1h6.2v.86a5.66,5.66,0,0,1-5.73,5.52,6,6,0,0,1,0-12A5.46,5.46,0,0,1,263.45,265.35Z"/><path class="cls-1" d="M275.17,262.87h-5v4.41h4.47v1H270.2v4.47h5v1H269V261.89h6.15Z"/><path class="cls-1" d="M289.42,261.91V273.7h-1.18l-6.52-9.92v9.92h-1.18V261.91h1.18l6.52,9.9v-9.9Z"/><path class="cls-1" d="M300.37,261.78a5.44,5.44,0,0,1,5.43,3.57h-1.38a4.1,4.1,0,0,0-4.05-2.54c-2.58,0-4.55,1.9-4.55,5s2,5,4.55,5a4.12,4.12,0,0,0,4.05-2.51h1.38a5.45,5.45,0,0,1-5.43,3.54,6,6,0,0,1,0-12Z"/><path class="cls-1" d="M310.2,261.91h1.34l3.07,6.12,3.05-6.12H319l-3.77,7.2v4.59H314v-4.59Z"/><rect class="cls-2" x="327.18" y="267.13" width="93.78" height="1.33"/><path class="cls-2" d="M115.32,219.58c-11.11-1.05-25.08-.53-36.29-.56v8.44h31a22.54,22.54,0,1,1,.34,45.07c-3.06,0-6.78,0-10.11,0v8.5c5,0,10.69.15,15.6-.57,14.55-2.11,25.49-15.5,25.49-30.55S130.19,221,115.32,219.58Z"/><path class="cls-2" d="M109.71,237.4q-11.31,0-22.6,0H79v43.71h8.51V262.71h9.84c4.19,0,8-.07,11.87,0,7.66.16,13.54-5.26,13.59-12.63S117.43,237.43,109.71,237.4Zm-1.41,19.89H88.86V242.84H108.3a7.23,7.23,0,1,1,0,14.45Z"/></svg>